<svg viewBox="0 0 80 80" xml:space="preserve" xmlns="http://www.w3.org/2000/svg" width="80" height="80">
  <path d="M80 10c0-3.733-3.243-8.7-3.613-9.257a1.667 1.667 0 0 0-3.047 1.073c.807 8.873-4.387 11.507-9.887 14.297-4.743 2.407-10.12 5.134-10.12 12.22 0 3.5.85 5.407 1.673 7.243.853 1.91 1.66 3.713 1.66 7.757 0 5.19-2.62 7.963-4.133 9.137-3.053-3.523-7.51-5.803-12.533-5.803-5.02 0-9.477 2.28-12.533 5.8-1.504-1.167-4.134-3.94-4.134-9.134 0-4.043.807-5.847 1.66-7.757.824-1.836 1.674-3.743 1.674-7.243 0-7.087-5.377-9.813-10.12-12.22-5.5-2.79-10.693-5.423-9.887-14.297A1.667 1.667 0 0 0 3.613.743C3.243 1.297 0 6.267 0 10c0 3.267.06 3.787 1.407 6.533C.773 17.667 0 19.777 0 23.333 0 27.8 3.24 31.04 4.857 32.38c-.313 2.88.493 7.527 5.25 10.333.487 2.323 3.033 7.497 15.287 12.763a16.45 16.45 0 0 0-2.061 7.857C23.333 72.523 30.81 80 40 80s16.667-7.477 16.667-16.667c0-2.857-.79-5.507-2.06-7.857 12.25-5.267 14.8-10.44 15.287-12.763 4.753-2.807 5.563-7.453 5.25-10.333C76.76 31.04 80 27.8 80 23.333c0-3.553-.77-5.667-1.407-6.8C79.94 13.786 80 13.266 80 10zM40 73.333c-5.513 0-10-4.487-10-10a1.667 1.667 0 1 1 3.333 0A6.674 6.674 0 0 0 40 70a1.667 1.667 0 1 1 0 3.333z" fill="#fff"/>
</svg>
