<svg viewBox="0 0 24 24" xml:space="preserve" xmlns="http://www.w3.org/2000/svg" width="24" height="24">
  <path d="M24 3c0-1.12-.973-2.61-1.084-2.777a.5.5 0 0 0-.914.322c.242 2.662-1.316 3.452-2.966 4.289C17.613 5.556 16 6.374 16 8.5c0 1.05.255 1.622.502 2.173.256.573.498 1.114.498 2.327 0 1.557-.786 2.389-1.24 2.741C14.844 14.684 13.507 14 12 14c-1.506 0-2.843.684-3.76 1.74C7.789 15.39 7 14.558 7 13c0-1.213.242-1.754.498-2.327C7.745 10.122 8 9.55 8 8.5c0-2.126-1.613-2.944-3.036-3.666-1.65-.837-3.208-1.627-2.966-4.289a.5.5 0 0 0-.914-.322C.973.389 0 1.88 0 3c0 .98.018 1.136.422 1.96C.232 5.3 0 5.933 0 7c0 1.34.972 2.312 1.457 2.714-.094.864.148 2.258 1.575 3.1.146.697.91 2.249 4.586 3.829A4.935 4.935 0 0 0 7 19c0 2.757 2.243 5 5 5s5-2.243 5-5c0-.857-.237-1.652-.618-2.357 3.675-1.58 4.44-3.132 4.586-3.829 1.426-.842 1.669-2.236 1.575-3.1C23.028 9.312 24 8.34 24 7c0-1.066-.231-1.7-.422-2.04.404-.824.422-.98.422-1.96zM12 22c-1.654 0-3-1.346-3-3a.5.5 0 1 1 1 0c0 1.103.897 2 2 2a.5.5 0 1 1 0 1z" fill="#303C42"/>
</svg>
